<svg id="Capa_1" enable-background="new 0 0 512.031 512.031" height="512" viewBox="0 0 512.031 512.031" width="512" xmlns="http://www.w3.org/2000/svg" xmlns:xlink="http://www.w3.org/1999/xlink"><linearGradient id="SVGID_1_" gradientUnits="userSpaceOnUse" x1="66.416" x2="486.628" y1="445.63" y2="25.418"><stop offset="0" stop-color="#fd3a84"/><stop offset="1" stop-color="#ffa68d"/></linearGradient><linearGradient id="SVGID_2_" gradientUnits="userSpaceOnUse" x1="109.4" x2="421.773" y1="402.646" y2="90.273"><stop offset="0" stop-color="#ffc2cc"/><stop offset="1" stop-color="#fff2f4"/></linearGradient><g><g><g><path d="m226.015 61.031c-124.264 0-226 100.736-226 225s101.736 226 226 226 225-101.736 225-226-100.736-225-225-225zm284.864-9.743c-2.314-5.61-7.793-9.258-13.857-9.258h-27.006v-27.027c0-6.064-4.078-11.543-9.673-13.857-5.566-2.329-12.041-1.04-16.348 3.252l-43.428 43.449c-2.813 2.813-4.395 6.621-4.395 10.605v42.437c0 8.291 6.709 15 15 15h42.422c3.984 0 7.793-1.582 10.605-4.395l43.428-43.464c4.278-4.291 5.567-11.131 3.252-16.742z" fill="url(#SVGID_1_)"/></g></g><g><g><path d="m379.326 196.338c46.318-46.274 46.846-93.457 46.846-95.449 0-8.291-6.709-15-15-15-1.992 0-49.189.527-95.479 46.816-3.235 3.235-5.977 6.458-8.778 9.681-23.934-13.535-51.502-21.356-80.9-21.356-90.967 0-165 74.019-165 165s74.033 165 165 165 165-74.019 165-165c0-29.407-7.826-56.981-21.365-80.916 3.221-2.801 6.442-5.54 9.676-8.776zm-153.311 194.693c-57.891 0-105-47.109-105-105s47.109-105 105-105c18.096 0 34.964 5.059 49.926 13.244-4.111 11.66-5.869 21.264-6.526 27.145l-54.005 54.005c-5.859 5.859-5.859 15.352 0 21.211s15.351 5.859 21.211 0l54.005-54.005c5.885-.659 15.496-2.421 27.164-6.539 8.152 14.888 13.226 31.718 13.226 49.938-.001 57.891-47.11 105.001-105.001 105.001z" fill="url(#SVGID_2_)"/></g></g></g></svg>