<svg id="Capa_1" enable-background="new 0 0 512 512" height="512" viewBox="0 0 512 512" width="512" xmlns="http://www.w3.org/2000/svg" xmlns:xlink="http://www.w3.org/1999/xlink">
	<linearGradient id="SVGID_1_" gradientUnits="userSpaceOnUse" x1="256" x2="256" y1="466" y2="46">
		<stop offset="0" stop-color="#5558ff"/>
		<stop offset="1" stop-color="#00c0ff"/>
	</linearGradient>
	<linearGradient id="SVGID_2_" gradientUnits="userSpaceOnUse" x1="256" x2="256" y1="406" y2="196">
		<stop offset="0" stop-color="#addcff"/>
		<stop offset=".5028" stop-color="#eaf6ff"/>
		<stop offset="1" stop-color="#eaf6ff"/>
	</linearGradient>
	<g id="Medical_Appointment_2_">
		<g>
			<g>
				<path d="m76 106c8.291 0 15-6.709 15-15v-30c0-8.291-6.709-15-15-15s-15 6.709-15 15v30c0 8.291 6.709 15 15 15zm90 0c8.291 0 15-6.709 15-15v-30c0-8.291-6.709-15-15-15s-15 6.709-15 15v30c0 8.291 6.709 15 15 15zm180 0c8.291 0 15-6.709 15-15v-30c0-8.291-6.709-15-15-15s-15 6.709-15 15v30c0 8.291 6.709 15 15 15zm90 0c8.291 0 15-6.709 15-15v-30c0-8.291-6.709-15-15-15s-15 6.709-15 15v30c0 8.291 6.709 15 15 15zm-175.842 15-260.158 30v300c0 8.399 6.599 15 15 15h482c8.401 0 15-6.601 15-15v-300z" fill="url(#SVGID_1_)"/>
			</g>
		</g>
		<g>
			<g>
				<path d="m497 76h-482c-8.401 0-15 6.599-15 15v60h512v-60c0-8.401-6.599-15-15-15zm-331 120c-57.891 0-105 47.109-105 105s47.109 105 105 105 105-47.109 105-105-47.109-105-105-105zm30 120h-15v15c0 8.291-6.709 15-15 15s-15-6.709-15-15v-15h-15c-8.291 0-15-6.709-15-15s6.709-15 15-15h15v-15c0-8.291 6.709-15 15-15s15 6.709 15 15v15h15c8.291 0 15 6.709 15 15s-6.709 15-15 15zm240-90c-8.284 0-15 6.714-15 15 0 8.284 6.716 15 15 15s15-6.716 15-15c0-8.286-6.716-15-15-15zm-60 0c-8.284 0-15 6.714-15 15 0 8.284 6.716 15 15 15s15-6.716 15-15c0-8.286-6.716-15-15-15zm-60 0c-8.284 0-15 6.714-15 15 0 8.284 6.716 15 15 15s15-6.716 15-15c0-8.286-6.716-15-15-15zm120 60c-8.284 0-15 6.714-15 15 0 8.284 6.716 15 15 15s15-6.716 15-15c0-8.286-6.716-15-15-15zm-60 0c-8.284 0-15 6.714-15 15 0 8.284 6.716 15 15 15s15-6.716 15-15c0-8.286-6.716-15-15-15zm-60 0c-8.284 0-15 6.714-15 15 0 8.284 6.716 15 15 15s15-6.716 15-15c0-8.286-6.716-15-15-15zm120 60c-8.284 0-15 6.714-15 15 0 8.284 6.716 15 15 15s15-6.716 15-15c0-8.286-6.716-15-15-15zm-60 0c-8.284 0-15 6.714-15 15 0 8.284 6.716 15 15 15s15-6.716 15-15c0-8.286-6.716-15-15-15zm-60 0c-8.284 0-15 6.714-15 15 0 8.284 6.716 15 15 15s15-6.716 15-15c0-8.286-6.716-15-15-15z" fill="url(#SVGID_2_)"/>
			</g>
		</g>
	</g>
</svg>