<svg id="Capa_1" enable-background="new 0 0 511.685 511.685" height="512" viewBox="0 0 511.685 511.685" width="512" xmlns="http://www.w3.org/2000/svg" xmlns:xlink="http://www.w3.org/1999/xlink"><linearGradient id="SVGID_1_" gradientUnits="userSpaceOnUse" x1="255.839" x2="255.839" y1="511.685" y2="211.685"><stop offset="0" stop-color="#a93aff"/><stop offset="1" stop-color="#ff81ff"/></linearGradient><linearGradient id="SVGID_2_" gradientUnits="userSpaceOnUse" x1="255.843" x2="255.843" y1="511.685" y2="0"><stop offset="0" stop-color="#ffbef9"/><stop offset="1" stop-color="#fff1ff"/></linearGradient><g><g><g><path d="m405.839 302.279v-75.594c0-8.401-6.599-15-15-15h-300c-8.401 0-15 6.599-15 15v240c0 24.899 20.099 45 45 45h315v-30z" fill="url(#SVGID_1_)"/></g></g><g><g><path d="m330.839 391.685h-180c-8.291 0-15 6.709-15 15s6.709 15 15 15h180c8.291 0 15-6.709 15-15s-6.709-15-15-15zm0-120h-180c-8.291 0-15 6.709-15 15v60c0 8.291 6.709 15 15 15h180c8.291 0 15-6.709 15-15v-60c0-8.291-6.709-15-15-15zm81.827-190.738c6.939 4.519 16.225 2.557 20.742-4.38 4.512-6.943 2.549-16.245-4.395-20.757-114.316-74.414-262.031-74.414-376.348 0-6.943 4.512-8.906 13.813-4.395 20.757 4.541 6.943 13.857 8.862 20.742 4.38 104.415-67.939 239.239-67.939 343.654 0zm-13.477 27.071c-96.211-64.336-220.488-64.336-316.699 0-6.885 4.6-8.73 13.916-4.131 20.801 4.6 6.87 13.887 8.701 20.83 4.131 84.727-56.66 198.574-56.66 283.301 0 6.979 4.64 16.241 2.706 20.83-4.131 4.599-6.885 2.754-16.202-4.131-20.801zm-29.766 52.324c-76.934-53.613-180.234-53.613-257.168 0-6.797 4.731-8.467 14.092-3.721 20.889 4.775 6.826 14.15 8.423 20.889 3.721 66.621-46.465 156.211-46.465 222.832 0 6.798 4.736 16.174 3.065 20.889-3.721 4.746-6.797 3.076-16.158-3.721-20.889zm81.416 141.343h-45v180c0 16.5 13.5 30 30 30 15.605 0 30-12.568 30-30v-165c0-8.401-6.599-15-15-15z" fill="url(#SVGID_2_)"/></g></g></g></svg>